<?xml version="1.0" encoding="UTF-8" standalone="no"?>
<!-- Generator: Adobe Illustrator 28.3.0, SVG Export Plug-In . SVG Version: 6.00 Build 0)  -->

<svg
   version="1.1"
   id="svg10222"
   x="0px"
   y="0px"
   viewBox="0 0 370.00001 160"
   xml:space="preserve"
   sodipodi:docname="gbajam24_logo1.svg"
   inkscape:version="1.3.2 (091e20ef0f, 2023-11-25)"
   inkscape:export-filename="gbajam_logo1_gba_size.png"
   inkscape:export-xdpi="62.270271"
   inkscape:export-ydpi="62.270271"
   width="370"
   height="160"
   xmlns:inkscape="http://www.inkscape.org/namespaces/inkscape"
   xmlns:sodipodi="http://sodipodi.sourceforge.net/DTD/sodipodi-0.dtd"
   xmlns="http://www.w3.org/2000/svg"
   xmlns:svg="http://www.w3.org/2000/svg"><sodipodi:namedview
   id="namedview1"
   pagecolor="#ffffff"
   bordercolor="#000000"
   borderopacity="0.25"
   inkscape:showpageshadow="2"
   inkscape:pageopacity="0.0"
   inkscape:pagecheckerboard="0"
   inkscape:deskcolor="#d1d1d1"
   showguides="true"
   inkscape:zoom="1.2313669"
   inkscape:cx="234.29248"
   inkscape:cy="51.568708"
   inkscape:window-width="1499"
   inkscape:window-height="991"
   inkscape:window-x="26"
   inkscape:window-y="23"
   inkscape:window-maximized="0"
   inkscape:current-layer="svg10222"><sodipodi:guide
     position="0.53045611,0.50000001"
     orientation="0.86940871,0.49409361"
     id="guide4"
     inkscape:locked="false"
     inkscape:label=""
     inkscape:color="rgb(0,134,229)" /><sodipodi:guide
     position="0.60018588,0.20943652"
     orientation="0.86940871,0.49409361"
     id="guide5"
     inkscape:label=""
     inkscape:locked="false"
     inkscape:color="rgb(0,134,229)" /><sodipodi:guide
     position="0.80292558,0.48535663"
     orientation="0.86940871,0.49409361"
     id="guide6"
     inkscape:label=""
     inkscape:locked="false"
     inkscape:color="rgb(0,134,229)" /><sodipodi:guide
     position="0.81273824,0.31130971"
     orientation="0.86940871,0.49409361"
     id="guide7"
     inkscape:label=""
     inkscape:locked="false"
     inkscape:color="rgb(0,134,229)" /><sodipodi:guide
     position="0.36695814,0.64655763"
     orientation="0,-1"
     id="guide8"
     inkscape:locked="false" /><sodipodi:guide
     position="0.64019388,0.35375975"
     orientation="0,-1"
     id="guide9"
     inkscape:locked="false" /><sodipodi:guide
     position="0.1669076,0.50000001"
     orientation="1,0"
     id="guide10"
     inkscape:locked="false" /><sodipodi:guide
     position="0.19128951,0.50031251"
     orientation="1,0"
     id="guide11"
     inkscape:locked="false" /><sodipodi:guide
     position="0.48865067,0.71898195"
     orientation="0,-1"
     id="guide12"
     inkscape:locked="false" /><sodipodi:guide
     position="0.61381076,0.28101807"
     orientation="0,-1"
     id="guide13"
     inkscape:locked="false" /><sodipodi:guide
     position="0.33539977,0.42190869"
     orientation="0,-1"
     id="guide14"
     inkscape:locked="false" /><sodipodi:guide
     position="0.33667445,0.58770973"
     orientation="0,-1"
     id="guide15"
     inkscape:locked="false" /><sodipodi:guide
     position="0.34556603,0.52759341"
     orientation="0,-1"
     id="guide16"
     inkscape:locked="false" /><sodipodi:guide
     position="0.34876587,0.47675879"
     orientation="0,-1"
     id="guide17"
     inkscape:locked="false" /><sodipodi:guide
     position="0.83081353,0.36750984"
     orientation="0.86940871,0.49409361"
     id="guide18"
     inkscape:label=""
     inkscape:locked="false"
     inkscape:color="rgb(0,134,229)" /><sodipodi:guide
     position="0.48315871,0.62424944"
     orientation="-0.86940871,0.49409361"
     id="guide19"
     inkscape:label=""
     inkscape:locked="false"
     inkscape:color="rgb(0,134,229)" /></sodipodi:namedview><defs
   id="defs5"><rect
     x="265.44418"
     y="78.667824"
     width="102.89004"
     height="17.914677"
     id="rect12" /><rect
     x="269.15152"
     y="50.43359"
     width="111.87358"
     height="35.250221"
     id="rect7" /><rect
     x="273.27353"
     y="51.868492"
     width="105.13124"
     height="28.324158"
     id="rect6" /><inkscape:path-effect
     effect="fillet_chamfer"
     id="path-effect1"
     is_visible="true"
     lpeversion="1"
     nodesatellites_param="F,0,0,1,0,0,0,1 @ F,0,0,1,0,9.0396596,0,1 @ F,0,0,1,0,15.954834,0,1 @ F,0,0,1,0,0,0,1"
     radius="0"
     unit="px"
     method="auto"
     mode="F"
     chamfer_steps="1"
     flexible="false"
     use_knot_distance="true"
     apply_no_radius="true"
     apply_with_radius="true"
     only_selected="false"
     hide_knots="false" /><inkscape:path-effect
     effect="fillet_chamfer"
     id="path-effect1-8"
     is_visible="true"
     lpeversion="1"
     nodesatellites_param="F,0,0,1,0,0,0,1 @ F,0,0,1,0,9.0396596,0,1 @ F,0,0,1,0,15.954834,0,1 @ F,0,0,1,0,0,0,1"
     radius="0"
     unit="px"
     method="auto"
     mode="F"
     chamfer_steps="1"
     flexible="false"
     use_knot_distance="true"
     apply_no_radius="true"
     apply_with_radius="true"
     only_selected="false"
     hide_knots="false" /></defs>
<style
   type="text/css"
   id="style1">
	.st0{fill:#553B91;}
	.st1{fill:#FFFFFF;}
	.st2{fill:#C84097;}
</style>

<path
   id="rect1-1"
   style="opacity:1;fill:#c84097;stroke-width:2;stroke-linecap:round;paint-order:markers stroke fill"
   d="M 72.208135,48.666447 H 193.49355 a 15.551678,15.551678 30.167974 0 1 13.51351,7.854942 l 27.54298,48.358451 a 9.2717087,9.2717087 120.17413 0 1 -8.05857,13.8604 l -114.45006,-0.0246 z"
   inkscape:path-effect="#path-effect1-8"
   inkscape:original-d="M 72.208135,48.666447 H 202.53321 l 39.91309,70.077223 -130.40489,-0.028 z"
   sodipodi:nodetypes="ccccc"
   transform="translate(107.64356,-3.678559)" /><path
   id="path12"
   style="display:inline;fill:#553b91;fill-opacity:1;stroke-width:11.845;stroke-linejoin:round"
   d="m 35.919847,44.96289 c -5.167645,-8.98e-4 -9.328577,4.31492 -9.328577,9.67383 v 50.72656 c 0,5.35892 4.160932,9.67383 9.328577,9.67383 H 219.68497 L 179.8517,44.987888 Z"
   sodipodi:nodetypes="ssssccs" />






<path
   id="path1"
   style="display:inline;fill:#ffffff;stroke-width:2;stroke-linecap:round;paint-order:markers stroke fill"
   inkscape:transform-center-x="1.1488539e-05"
   inkscape:transform-center-y="-9.6520584"
   d="m 166.08341,56.675389 -26.53906,46.699221 h 47.15821 l -6.85547,-11.705081 h -19.92383 l 12.53125,-21.867187 12.53125,21.867187 6.85547,11.705081 h 13.52148 L 178.8256,56.675389 Z"
   inkscape:label="A" /><path
   id="path2624-7-3-97-0"
   class="st1"
   d="m 91.104374,56.57617 v 46.7 h 41.999996 c 3.9,0 7,-3.10001 7,-7 V 83.67616 c 0,-2.3 -1.6,-3.35 -3.9,-4.05 2.3,-0.69999 3.9,-1.54999 3.9,-4.04999 v -12 c 0,-4.7 -2.3,-7 -7,-7 z m 12.499996,9.4 h 21 c 2.3,0 3.1,0.9 3.1,3.2 v 3.2 c 0,2.3 -0.8,3.2 -3.1,3.2 h -16.3 v 8.09999 h 16.3 c 2.3,0 3.1,0.6654 3.1,2.9654 v 2.96539 c 0,2.3 -0.8,2.9654 -3.1,2.9654 h -21 v -7.19613 0 -13.2 0 z" /><path
   id="G"
   class="st1"
   d="m 38.204375,63.62539 v 32.7 c 0,3.09999 3.2,7 7.1,7 h 35.699999 c 3.1,0 7,-3.7 7,-6.60001 V 75.62539 h -29.5 v 8.09999 h 17.1 v 4.80001 c 0,2.3 -0.8,4.09618 -3.1,4.09618 h -18.7 c -2.3,0 -3.1,-1.79618 -3.1,-4.09618 v -17.9 c 0,-2.3 0.8,-4.6 3.1,-4.6 h 33.62278 v -9.4 H 45.304375 c -3.2,0 -7.1,3.9 -7.1,7 z" /><path
   d="m 215.6293,56.724609 -0.85076,0.646447 0.37144,1.535309 12.76246,22.342789 0.37144,1.535309 -0.85077,0.646445 h -7.36998 l -1.60589,-0.646445 -1.37347,-1.535309 -5.16121,-9.009841 -1.4058,-1.53531 -1.57357,-0.646446 h -6.3033 l -0.85076,0.646446 0.37145,1.53531 6.6391,11.595623 1.37347,1.535311 1.60591,0.646445 h 26.89398 l 0.85076,-0.646445 -0.37143,-1.535311 -14.24038,-24.928571 -1.4058,-1.535309 -1.57357,-0.646447 z m 44.95468,15.959135 6.36743,11.151192 1.37347,1.535311 1.60591,0.646445 h 6.30328 l 0.85076,-0.646445 -0.37144,-1.535311 -14.24037,-24.928571 -1.40581,-1.535309 -1.57357,-0.646447 h -26.92633 l -0.85076,0.646447 0.37144,1.535309 14.24038,24.928571 1.37347,1.535311 1.63823,0.646445 h 6.27096 l 0.85076,-0.646445 -0.37144,-1.535311 -6.36743,-11.151192 z m -12.36656,-2.626187 -4.88952,-8.565408 -0.34391,-1.494907 0.85077,-0.646447 h 7.40232 l 1.57356,0.646447 1.37817,1.494907 4.8895,8.565408 z m 51.917,-2.262559 2.79226,17.17122 -0.32003,0.808058 -1.26388,-0.808058 -16.85341,-17.17122 9.1621,16.039938 0.39908,1.575714 -0.87841,0.606042 h -6.30327 l -1.57826,-0.606042 -1.40112,-1.575714 -14.24038,-24.928571 -0.37144,-1.535309 0.85076,-0.646447 h 6.30329 l 1.7722,0.606042 1.84479,1.373699 15.81995,16.605581 1.19926,0.808057 0.28766,-0.808057 -3.14873,-16.605581 0.22398,-1.373699 1.10467,-0.606042 h 6.30327 l 1.57358,0.646447 1.4058,1.535309 14.24039,24.928571 0.39906,1.575714 -0.8784,0.606042 h -6.30329 l -1.57826,-0.606042 -1.40111,-1.575714 z"
   id="text7"
   style="font-size:12px;font-family:GauFontOverDrive;-inkscape-font-specification:'GauFontOverDrive, Normal';white-space:pre;fill:#ffffff;stroke-width:35.6719;stroke-linejoin:round"
   aria-label="JAM" /><path
   d="m 240.83601,102.9087 q 0.12574,-0.22537 -0.0336,-0.37025 -0.13596,-0.14488 -0.43949,-0.14488 h -12.88853 q -0.51367,0 -0.75019,-0.25757 -0.21316,-0.25756 -0.0189,-0.61171 l 1.12631,-2.012219 q 0.19994,-0.370248 0.70495,-0.611715 0.51065,-0.257564 1.02431,-0.257564 h 12.37486 q 0.51367,0 1.02433,-0.257564 0.51064,-0.257564 0.7283,-0.611714 l 2.8581,-5.15128 q 0.19431,-0.35415 -0.0422,-0.611714 -0.21316,-0.257564 -0.75019,-0.257564 h -19.42618 q -0.51367,0 -1.02433,0.257564 -0.51064,0.257564 -0.70495,0.611714 l -0.80622,1.4327 q -0.1943,0.35415 0.0189,0.611714 0.23652,0.257564 0.77354,0.257564 h 4.52967 q 0.51367,0 1.02433,-0.257564 0.51064,-0.257564 0.70495,-0.611714 l 0.23461,-0.402444 q 0.1943,-0.354151 0.69931,-0.595617 0.51064,-0.257564 1.02432,-0.257564 h 5.32352 q 0.51368,0 0.7502,0.257564 0.24215,0.241466 0.0245,0.595617 l -1.69151,3.090768 q -0.21767,0.35415 -0.72831,0.611714 -0.505,0.241467 -1.01867,0.241467 h -12.37486 q -0.51367,0 -1.02432,0.257564 -0.51064,0.257564 -0.70495,0.611714 l -2.27519,4.088833 q -0.1943,0.35415 0.0189,0.61171 0.23649,0.25756 0.75016,0.25756 h 19.93986 q 0.74716,0 1.04464,-0.51512 z m 31.18554,-11.155744 h -19.44954 q -0.51367,0 -1.02433,0.257565 -0.51063,0.257564 -0.70495,0.611714 l -5.51625,9.932315 q -0.19431,0.35415 0.0189,0.61171 0.23647,0.25757 0.77348,0.25757 h 19.42619 q 0.51367,0 1.02433,-0.25757 0.51064,-0.25756 0.70495,-0.61171 l 5.51626,-9.932315 q 0.19429,-0.35415 -0.0423,-0.611714 -0.21317,-0.257565 -0.72683,-0.257565 z m -14.6991,1.899535 q 0.19429,-0.354151 0.69931,-0.595618 0.51064,-0.257564 1.02432,-0.257564 h 5.34687 q 0.56036,0 0.77993,0.305857 l -11.90902,7.855704 z m 3.47216,7.871799 q -0.19428,0.35415 -0.70495,0.61172 -0.51064,0.25756 -1.02432,0.25756 h -5.32352 q -0.58372,0 -0.79764,-0.32196 l 11.90902,-7.855698 z m 32.6462,1.38441 q 0.12573,-0.22537 -0.0336,-0.37025 -0.13596,-0.14488 -0.4395,-0.14488 h -12.88852 q -0.51367,0 -0.75018,-0.25757 -0.21316,-0.25756 -0.0189,-0.61171 l 1.1263,-2.012219 q 0.19994,-0.370248 0.70495,-0.611715 0.51064,-0.257564 1.02432,-0.257564 h 12.37486 q 0.51367,0 1.02433,-0.257564 0.51064,-0.257564 0.72829,-0.611714 l 2.85811,-5.15128 q 0.19431,-0.35415 -0.0423,-0.611714 -0.21316,-0.257564 -0.75018,-0.257564 h -19.42618 q -0.51368,0 -1.02432,0.257564 -0.51065,0.257564 -0.70496,0.611714 l -0.80623,1.4327 q -0.19429,0.35415 0.0189,0.611714 0.23652,0.257564 0.77354,0.257564 h 4.52967 q 0.51367,0 1.02432,-0.257564 0.51064,-0.257564 0.70494,-0.611714 l 0.23463,-0.402444 q 0.19429,-0.354151 0.69931,-0.595617 0.51064,-0.257564 1.02432,-0.257564 h 5.32353 q 0.51366,0 0.75017,0.257564 0.24216,0.241466 0.0245,0.595617 l -1.69151,3.090768 q -0.21769,0.35415 -0.72831,0.611714 -0.505,0.241467 -1.01868,0.241467 h -12.37485 q -0.51367,0 -1.02433,0.257564 -0.51063,0.257564 -0.70494,0.611714 l -2.27519,4.088833 q -0.19431,0.35415 0.0189,0.61171 0.2365,0.25756 0.75017,0.25756 h 19.93986 q 0.74716,0 1.04464,-0.51512 z m 20.082,-4.797133 h -13.63568 q -0.51368,0 -0.7502,-0.257564 -0.23651,-0.257564 -0.0189,-0.611715 l 2.55498,-4.620054 q 0.19429,-0.35415 0.70495,-0.611714 0.51065,-0.257564 1.02432,-0.257564 h 4.55301 q 0.51367,0 0.72684,0.257564 0.23651,0.257564 0.0423,0.611714 l -1.98336,3.589798 q -0.1943,0.354151 0.0189,0.611715 0.24216,0.241467 0.75583,0.241467 h 6.58435 l 2.4695,-4.442979 q 0.19431,-0.35415 0.70495,-0.611714 0.51065,-0.257565 1.02432,-0.257565 h 4.52967 q 0.53702,0 0.75018,0.257565 0.23653,0.257564 0.0423,0.611714 l -5.51626,9.932315 q -0.19431,0.35415 -0.70495,0.61171 -0.51081,0.25757 -1.02449,0.25757 h -4.55301 q -0.51368,0 -0.75019,-0.25757 -0.21317,-0.25756 -0.0189,-0.61171 z"
   id="text11"
   style="font-size:12px;font-family:GauFontOverDrive;-inkscape-font-specification:'GauFontOverDrive, Normal';white-space:pre;fill:#ffffff;stroke-width:19.1368;stroke-linejoin:round"
   aria-label="2024" /></svg>
