<?xml version="1.0" encoding="UTF-8" standalone="no"?>
<!-- Generator: Adobe Illustrator 28.3.0, SVG Export Plug-In . SVG Version: 6.00 Build 0)  -->

<svg
   version="1.1"
   id="svg10222"
   x="0px"
   y="0px"
   viewBox="0 0 240.00001 160"
   xml:space="preserve"
   sodipodi:docname="gbajam24_logo2.svg"
   inkscape:version="1.3.2 (091e20ef0f, 2023-11-25)"
   width="240"
   height="160"
   inkscape:export-filename="gbajam24_logo2_gba_size.png"
   inkscape:export-xdpi="96"
   inkscape:export-ydpi="96"
   xmlns:inkscape="http://www.inkscape.org/namespaces/inkscape"
   xmlns:sodipodi="http://sodipodi.sourceforge.net/DTD/sodipodi-0.dtd"
   xmlns="http://www.w3.org/2000/svg"
   xmlns:svg="http://www.w3.org/2000/svg"><sodipodi:namedview
   id="namedview1"
   pagecolor="#ffffff"
   bordercolor="#000000"
   borderopacity="0.25"
   inkscape:showpageshadow="2"
   inkscape:pageopacity="0.0"
   inkscape:pagecheckerboard="0"
   inkscape:deskcolor="#d1d1d1"
   showguides="true"
   inkscape:zoom="1.2313669"
   inkscape:cx="91.767937"
   inkscape:cy="63.750292"
   inkscape:window-width="1920"
   inkscape:window-height="1011"
   inkscape:window-x="0"
   inkscape:window-y="0"
   inkscape:window-maximized="1"
   inkscape:current-layer="svg10222"
   showgrid="false"><sodipodi:guide
     position="0.53045611,0.50000001"
     orientation="0.86940871,0.49409361"
     id="guide4"
     inkscape:locked="false"
     inkscape:label=""
     inkscape:color="rgb(0,134,229)" /><sodipodi:guide
     position="0.60018588,0.20943652"
     orientation="0.86940871,0.49409361"
     id="guide5"
     inkscape:label=""
     inkscape:locked="false"
     inkscape:color="rgb(0,134,229)" /><sodipodi:guide
     position="0.47990488,0.40939908"
     orientation="0.86940871,0.49409361"
     id="guide6"
     inkscape:label=""
     inkscape:locked="false"
     inkscape:color="rgb(0,134,229)" /><sodipodi:guide
     position="0.41587116,0.59145683"
     orientation="0.86940871,0.49409361"
     id="guide7"
     inkscape:label=""
     inkscape:locked="false"
     inkscape:color="rgb(0,134,229)" /><sodipodi:guide
     position="0.36695814,0.64655763"
     orientation="0,-1"
     id="guide8"
     inkscape:locked="false" /><sodipodi:guide
     position="0.64019388,0.35375975"
     orientation="0,-1"
     id="guide9"
     inkscape:locked="false" /><sodipodi:guide
     position="0.1669076,0.50000001"
     orientation="1,0"
     id="guide10"
     inkscape:locked="false" /><sodipodi:guide
     position="0.19128951,0.50031251"
     orientation="1,0"
     id="guide11"
     inkscape:locked="false" /><sodipodi:guide
     position="0.48865067,0.71898195"
     orientation="0,-1"
     id="guide12"
     inkscape:locked="false" /><sodipodi:guide
     position="0.61381076,0.28101807"
     orientation="0,-1"
     id="guide13"
     inkscape:locked="false" /><sodipodi:guide
     position="0.33539977,0.42190869"
     orientation="0,-1"
     id="guide14"
     inkscape:locked="false" /><sodipodi:guide
     position="0.33667445,0.58770973"
     orientation="0,-1"
     id="guide15"
     inkscape:locked="false" /><sodipodi:guide
     position="0.34556603,0.52759341"
     orientation="0,-1"
     id="guide16"
     inkscape:locked="false" /><sodipodi:guide
     position="0.34876587,0.47675879"
     orientation="0,-1"
     id="guide17"
     inkscape:locked="false" /><sodipodi:guide
     position="0.21913572,0.25787082"
     orientation="0.86940871,0.49409361"
     id="guide18"
     inkscape:label=""
     inkscape:locked="false"
     inkscape:color="rgb(0,134,229)" /><sodipodi:guide
     position="0.88672796,0.47685259"
     orientation="-0.86940871,0.49409361"
     id="guide19"
     inkscape:label=""
     inkscape:locked="false"
     inkscape:color="rgb(0,134,229)" /><sodipodi:guide
     position="0.57214555,0.42654404"
     orientation="0,-1"
     id="guide2"
     inkscape:locked="false" /></sodipodi:namedview><defs
   id="defs5"><inkscape:path-effect
     effect="fillet_chamfer"
     id="path-effect1"
     is_visible="true"
     lpeversion="1"
     nodesatellites_param="F,0,0,1,0,0,0,1 @ F,0,0,1,0,9.0396596,0,1 @ F,0,0,1,0,15.954834,0,1 @ F,0,0,1,0,0,0,1"
     radius="0"
     unit="px"
     method="auto"
     mode="F"
     chamfer_steps="1"
     flexible="false"
     use_knot_distance="true"
     apply_no_radius="true"
     apply_with_radius="true"
     only_selected="false"
     hide_knots="false" /><inkscape:path-effect
     effect="fillet_chamfer"
     id="path-effect3"
     is_visible="true"
     lpeversion="1"
     nodesatellites_param="F,0,0,1,0,7.5549586,0,1 @ F,0,0,1,0,4.1138861,0,1 @ F,0,0,1,0,7.5549586,0,1 @ F,0,0,1,0,7.4048889,0,1 @ F,0,0,1,0,2.5683786,0,1 @ F,0,0,1,0,10.637549,0,1 @ F,0,0,1,0,0,0,1 @ F,0,0,1,0,10.637549,0,1"
     radius="0"
     unit="px"
     method="auto"
     mode="F"
     chamfer_steps="1"
     flexible="false"
     use_knot_distance="true"
     apply_no_radius="true"
     apply_with_radius="true"
     only_selected="false"
     hide_knots="false" /><inkscape:path-effect
     effect="fillet_chamfer"
     id="path-effect2"
     is_visible="true"
     lpeversion="1"
     nodesatellites_param="F,0,0,1,0,0,0,1 @ F,0,0,1,0,0,0,1 @ F,0,0,1,0,0,0,1 @ F,0,1,1,0,5.9840685,0,1 @ F,0,1,1,0,5.9840685,0,1 @ F,0,1,1,0,5.9840685,0,1 @ F,0,0,1,0,0,0,1 @ F,0,0,1,0,15.763864,0,1"
     radius="0"
     unit="px"
     method="auto"
     mode="F"
     chamfer_steps="1"
     flexible="false"
     use_knot_distance="true"
     apply_no_radius="true"
     apply_with_radius="true"
     only_selected="false"
     hide_knots="false" /><rect
     x="265.44418"
     y="78.667824"
     width="102.89004"
     height="17.914677"
     id="rect12" /><rect
     x="269.15152"
     y="50.43359"
     width="111.87358"
     height="35.250221"
     id="rect7" /><rect
     x="273.27353"
     y="51.868492"
     width="105.13124"
     height="28.324158"
     id="rect6" /></defs>
<style
   type="text/css"
   id="style1">
	.st0{fill:#553B91;}
	.st1{fill:#FFFFFF;}
	.st2{fill:#C84097;}
</style>

<path
   id="path13"
   style="display:none;fill:#c84097;fill-opacity:1;stroke-width:11.845;stroke-linejoin:round"
   d="m 64.526853,48.666442 39.847487,70.074228 h 115.67125 c 8.52059,0 8.23791,-11.75862 6.23652,-15.28028 l -25.6422,-45.120117 c -2.77863,-4.59395 -4.53141,-9.673831 -10.15821,-9.673831 z"
   sodipodi:nodetypes="ccsscsc" /><path
   id="rect1"
   style="opacity:1;fill:#c84097;stroke-width:2;stroke-linecap:round;paint-order:markers stroke fill"
   d="M 64.409738,48.666447 H 193.49355 a 15.552008,15.552008 30.167447 0 1 13.51365,7.854859 l 27.54258,48.355684 a 9.2738037,9.2738037 120.16745 0 1 -8.05831,13.86368 H 104.49146 Z"
   inkscape:path-effect="#path-effect1"
   inkscape:original-d="M 64.409738,48.666447 H 202.53321 L 242.4463,118.74067 H 104.49146 Z"
   sodipodi:nodetypes="ccccc"
   transform="translate(-12.734181,2.6348745)" /><path
   id="path12"
   style="display:inline;fill:#553b91;fill-opacity:1;stroke-width:11.845;stroke-linejoin:round"
   d="m 26.297488,38.624455 c -5.167644,0 -9.328576,4.31492 -9.328576,9.67383 v 39.406996 c 0,5.358922 4.160932,9.673833 9.328576,9.673833 H 202.2323 L 168.83691,38.624455 Z"
   sodipodi:nodetypes="ssssccs" />






<g
   id="g1"
   transform="translate(-66.274964,-11.973606)"><path
     id="path1"
     style="display:inline;fill:#ffffff;stroke-width:2;stroke-linecap:round;paint-order:markers stroke fill"
     inkscape:transform-center-x="1.1488539e-05"
     inkscape:transform-center-y="-9.6520584"
     d="m 219.60654,56.675389 -26.53906,46.699221 h 47.15821 l -6.85547,-11.705081 h -19.92383 l 12.53125,-21.867187 12.53125,21.867187 6.85547,11.705081 h 13.52148 L 232.34873,56.675389 Z"
     inkscape:label="A" /><path
     id="path2624-7-3-97-0"
     class="st1"
     d="m 144.6275,56.57617 v 46.7 h 42 c 3.9,0 7,-3.10001 7,-7 V 83.67616 c 0,-2.3 -1.6,-3.35 -3.9,-4.05 2.3,-0.69999 3.9,-1.54999 3.9,-4.04999 v -12 c 0,-4.7 -2.3,-7 -7,-7 z m 12.5,9.4 h 21 c 2.3,0 3.1,0.9 3.1,3.2 v 3.2 c 0,2.3 -0.8,3.2 -3.1,3.2 h -16.3 v 8.09999 h 16.3 c 2.3,0 3.1,0.6654 3.1,2.9654 v 2.96539 c 0,2.3 -0.8,2.9654 -3.1,2.9654 h -21 v -7.19613 0 -13.2 0 z"
     inkscape:label="B" /><path
     id="G"
     class="st1"
     d="m 91.727501,63.62539 v 32.7 c 0,3.09999 3.2,7 7.1,7 H 134.5275 c 3.1,0 7,-3.7 7,-6.60001 V 75.62539 h -29.5 v 8.09999 h 17.1 v 4.80001 c 0,2.3 -0.8,4.09618 -3.1,4.09618 h -18.7 c -2.3,0 -3.1,-1.79618 -3.1,-4.09618 v -17.9 c 0,-2.3 0.8,-4.6 3.1,-4.6 h 33.62278 v -9.4 H 98.827501 c -3.2,0 -7.1,3.9 -7.1,7 z" /></g><path
   d="m 112.73357,99.633359 q -0.38995,0 -0.83134,0.283602 -0.4414,0.283599 -0.6628,0.673549 l -5.6111,9.80198 q -0.22142,0.38995 -0.66279,0.67355 -0.4414,0.28361 -0.83135,0.28361 h -4.04132 q -0.389951,0 -0.515761,-0.28361 -0.10808,-0.2836 0.11331,-0.67355 l 2.254661,-3.9527 q 0.22143,-0.38995 0.0956,-0.67355 -0.10808,-0.2836 -0.49803,-0.2836 h -3.456401 q -0.38995,0 -0.83134,0.2836 -0.44139,0.2836 -0.6628,0.67355 l -2.90356,5.08711 q -0.23912,0.38995 -0.11332,0.67355 0.12581,0.2836 0.51576,0.2836 h 14.747281 q 0.38996,0 0.83135,-0.2836 0.4414,-0.2836 0.6628,-0.67355 l 6.26,-10.93639 q 0.22143,-0.38995 0.0956,-0.673549 -0.10808,-0.283602 -0.49804,-0.283602 z m 15.64414,7.001411 -2.80173,4.89213 q -0.22142,0.38995 -0.11332,0.67355 0.12581,0.2836 0.51576,0.2836 h 3.4564 q 0.38995,0 0.83134,-0.2836 0.4414,-0.2836 0.6628,-0.67355 l 6.26,-10.93639 q 0.22143,-0.38995 0.0956,-0.673549 -0.10809,-0.283602 -0.49804,-0.283602 h -14.76501 q -0.38995,0 -0.83134,0.283602 -0.44139,0.283599 -0.6628,0.673549 l -6.26,10.93639 q -0.22142,0.38995 -0.11332,0.67355 0.12581,0.2836 0.53349,0.2836 h 3.43867 q 0.38995,0 0.83134,-0.2836 0.4414,-0.2836 0.6628,-0.67355 l 2.80173,-4.89213 z m -5.29909,-1.15213 2.15282,-3.75772 q 0.22143,-0.38995 0.65515,-0.65583 0.4414,-0.2836 0.83136,-0.2836 h 4.05904 q 0.38996,0 0.49803,0.2836 0.13346,0.26588 -0.0879,0.65583 l -2.15283,3.75772 z m 29.74554,-0.99261 -8.15964,7.53317 q -0.38335,0.3545 -0.6315,0.3545 -0.26588,0 -0.23703,-0.3545 l 0.44922,-7.53317 -4.02829,7.03687 q -0.22907,0.40767 -0.67043,0.69128 -0.43376,0.26587 -0.82371,0.26587 h -3.45639 q -0.38995,0 -0.52341,-0.26587 -0.10808,-0.28361 0.12096,-0.69128 l 6.26001,-10.93639 q 0.22143,-0.38995 0.66279,-0.673549 0.4414,-0.283602 0.83135,-0.283602 h 3.45639 q 0.38995,0 0.62977,0.265877 0.26517,0.248154 0.23631,0.602654 l -0.69667,7.28501 q -0.0289,0.3545 0.20158,0.3545 0.24815,0 0.61378,-0.3545 l 7.6449,-7.28501 q 0.36564,-0.3545 0.8981,-0.602654 0.55781,-0.265877 0.94777,-0.265877 h 3.45639 q 0.38995,0 0.49804,0.283602 0.12581,0.283599 -0.0956,0.673549 l -6.26001,10.93639 q -0.22907,0.40767 -0.67044,0.69128 -0.43375,0.26587 -0.8237,0.26587 h -3.45639 q -0.38996,0 -0.52341,-0.26587 -0.10808,-0.28361 0.12096,-0.69128 z m 11.01775,-1.9143 -1.34088,1.38255 q -0.12443,0.12407 -0.17031,0.23043 -0.12234,0.2836 0.21443,0.2836 h 0.30133 q 0.5672,0 1.12815,-0.47858 l 0.61936,-0.53175 q 0.8609,-0.88625 1.39789,-1.84341 l 0.60303,-1.02806 q 0.22143,-0.38995 0.0956,-0.673549 -0.10809,-0.283602 -0.51576,-0.283602 h -1.64844 q -0.40768,0 -0.84907,0.283602 -0.44139,0.283599 -0.66279,0.673549 l -0.5853,1.02806 q -0.22142,0.38995 -0.11332,0.67355 0.12581,0.28361 0.51576,0.28361 z m 16.21232,9.34112 q 0.14245,-0.24815 0.0518,-0.40768 -0.073,-0.15952 -0.30341,-0.15952 h -9.78426 q -0.38995,0 -0.51575,-0.28361 -0.10809,-0.2836 0.11331,-0.67355 l 1.27487,-2.21564 q 0.22907,-0.40767 0.6628,-0.67355 0.44139,-0.2836 0.83134,-0.2836 h 9.3943 q 0.38996,0 0.83136,-0.2836 0.44139,-0.28361 0.68052,-0.67356 l 3.24452,-5.67203 q 0.22143,-0.38995 0.0956,-0.673549 -0.10808,-0.283602 -0.51576,-0.283602 h -14.74728 q -0.38995,0 -0.83135,0.283602 -0.44139,0.283599 -0.66279,0.673549 l -0.91097,1.57754 q -0.22142,0.38995 -0.11332,0.67355 0.12581,0.2836 0.53349,0.2836 h 3.43867 q 0.38995,0 0.83134,-0.2836 0.44141,-0.2836 0.6628,-0.67355 l 0.26206,-0.44313 q 0.22143,-0.38995 0.65515,-0.65583 0.4414,-0.2836 0.83135,-0.2836 h 4.04132 q 0.38996,0 0.51576,0.2836 0.13346,0.26588 -0.10567,0.65583 l -1.92899,3.40322 q -0.23912,0.38995 -0.68052,0.67355 -0.43375,0.26588 -0.8237,0.26588 h -9.3943 q -0.38995,0 -0.83136,0.2836 -0.44139,0.2836 -0.66278,0.67355 l -2.58034,4.50218 q -0.22142,0.38995 -0.11332,0.67355 0.12582,0.2836 0.51577,0.2836 h 15.13723 q 0.56721,0 0.90052,-0.5672 z m 16.24605,-5.28208 h -10.35146 q -0.38995,0 -0.51576,-0.2836 -0.12581,-0.2836 0.11331,-0.67356 l 2.90357,-5.0871 q 0.22143,-0.38995 0.6628,-0.673549 0.44139,-0.283602 0.83134,-0.283602 h 3.45639 q 0.38996,0 0.49804,0.283602 0.12581,0.283599 -0.0956,0.673549 l -2.25466,3.9527 q -0.22142,0.38995 -0.11332,0.67355 0.13345,0.26588 0.52341,0.26588 h 4.99847 l 2.80173,-4.89213 q 0.22143,-0.38995 0.6628,-0.673549 0.44139,-0.283602 0.83134,-0.283602 h 3.43867 q 0.40768,0 0.51577,0.283602 0.12581,0.283599 -0.0956,0.673549 l -6.26,10.93639 q -0.22142,0.38995 -0.6628,0.67355 -0.44139,0.2836 -0.83134,0.2836 h -3.4564 q -0.38995,0 -0.51576,-0.2836 -0.10808,-0.2836 0.11332,-0.67355 z"
   id="text1"
   style="font-size:17.7251px;font-family:GauFontOverDrive;-inkscape-font-specification:'GauFontOverDrive, Normal';display:inline;fill:#ffffff;stroke-width:2;stroke-linecap:round;paint-order:markers stroke fill"
   aria-label="JAM'24" /></svg>
